<?xml version="1.0" encoding="utf-8"?>
<!-- Generator: Adobe Illustrator 25.0.1, SVG Export Plug-In . SVG Version: 6.00 Build 0)  -->
<svg version="1.1" id="Layer_1" xmlns="http://www.w3.org/2000/svg" xmlns:xlink="http://www.w3.org/1999/xlink" x="0px" y="0px"
	 viewBox="0 0 1000 1000" style="enable-background:new 0 0 1000 1000;" xml:space="preserve">
<style type="text/css">
	.st0{fill:#9edecf;stroke:#FFFFFF;stroke-miterlimit:10;}
	.st1{fill:none;stroke:#1b0cf0;stroke-width:4;stroke-linecap:round;stroke-linejoin:round;stroke-miterlimit:10;}
	.st2{display:none;fill:none;stroke:#6C936B;stroke-width:4;stroke-linecap:round;stroke-linejoin:round;stroke-miterlimit:10;}
	.st3{opacity:0.94;}
	.st4{fill:##f02a0c;}
	.st5{fill:#243A5E;}
	.st6{fill:#db381f;}
	.st7{fill:#5f2656;}
</style>
<rect x="1.5" y="3.1" class="st0" width="996.9" height="996.9"/>
<g id="Circles">
</g>
<g id="Centre_for_Innovation_and_Culture">
</g>
<g id="Innopolis">
	<g>
		<g>
			<circle class="st1" cx="500" cy="500" r="463.6"/>
			<circle class="st2" cx="351.4" cy="448.2" r="285.8"/>
			<circle class="st1" cx="349" cy="305.2" r="216.4"/>
			<circle class="st1" cx="429" cy="329.8" r="132.8"/>
			<circle class="st1" cx="414.1" cy="378" r="81"/>
			<circle class="st1" cx="382.4" cy="368.3" r="47.8"/>
			<circle class="st1" cx="387.5" cy="351.8" r="30.5"/>
		</g>
		<g class="st3">
			<path class="st4" d="M134.3,716.8c1.4-2.3,3.2-4.2,5.6-5.5c2.4-1.3,4.9-2,7.7-2c3.2,0,6.1,0.8,8.6,2.4s4.3,3.8,5.4,6.7h-5.9
				c-0.8-1.6-1.9-2.8-3.2-3.5c-1.4-0.8-3-1.2-4.8-1.2c-2,0-3.8,0.5-5.3,1.3c-1.6,0.9-2.8,2.2-3.7,3.8s-1.3,3.6-1.3,5.8
				c0,2.2,0.4,4.2,1.3,5.8c0.9,1.7,2.1,3,3.7,3.9s3.3,1.4,5.3,1.4c1.8,0,3.4-0.4,4.8-1.2c1.4-0.8,2.5-2,3.2-3.5h5.9
				c-1.1,2.9-2.9,5.1-5.4,6.7s-5.4,2.3-8.6,2.3c-2.8,0-5.4-0.7-7.8-2s-4.2-3.1-5.6-5.5c-1.4-2.3-2.1-5-2.1-7.9
				S133,719.2,134.3,716.8z"/>
			<path class="st4" d="M189.1,729.8h-18.2c0.1,1.9,0.9,3.4,2.1,4.6s2.8,1.7,4.7,1.7c2.7,0,4.5-1.1,5.6-3.3h5.3
				c-0.7,2.2-2,4-3.9,5.4s-4.2,2.1-7,2.1c-2.3,0-4.3-0.5-6.1-1.5c-1.8-1-3.2-2.5-4.2-4.3c-1-1.9-1.5-4-1.5-6.5s0.5-4.6,1.5-6.5
				c1-1.9,2.4-3.3,4.2-4.3s3.9-1.5,6.2-1.5c2.2,0,4.3,0.5,6,1.5c1.8,1,3.1,2.4,4.1,4.1c1,1.8,1.5,3.8,1.5,6.1
				C189.3,728.3,189.2,729.1,189.1,729.8z M184.1,725.8c0-1.8-0.7-3.3-1.9-4.4c-1.3-1.1-2.8-1.6-4.7-1.6c-1.7,0-3.2,0.5-4.4,1.6
				c-1.2,1.1-1.9,2.5-2.2,4.4H184.1z"/>
			<path class="st4" d="M211.2,716.8c1.5,0.8,2.6,1.9,3.5,3.5c0.8,1.5,1.3,3.4,1.3,5.5v14.1h-4.9v-13.3c0-2.1-0.5-3.8-1.6-4.9
				c-1.1-1.1-2.5-1.7-4.4-1.7s-3.3,0.6-4.4,1.7s-1.6,2.8-1.6,4.9v13.3h-4.9V716h4.9v2.7c0.8-1,1.8-1.8,3.1-2.3
				c1.3-0.5,2.6-0.8,4-0.8C208,715.6,209.7,716,211.2,716.8z"/>
			<path class="st4" d="M228,720v13.2c0,0.9,0.2,1.5,0.6,1.9s1.1,0.6,2.1,0.6h3v4.1h-3.9c-2.2,0-3.9-0.5-5.1-1.6
				c-1.2-1-1.8-2.7-1.8-5.1V720h-2.8v-4h2.8v-5.9h5v5.9h5.8v4L228,720L228,720z"/>
			<path class="st4" d="M246.1,716.7c1.2-0.7,2.6-1,4.3-1v5.1h-1.3c-1.9,0-3.4,0.5-4.4,1.5c-1,1-1.5,2.7-1.5,5.1v12.6h-4.9V716h4.9
				v3.5C244,718.3,244.9,717.3,246.1,716.7z"/>
			<path class="st4" d="M276.6,729.8h-18.2c0.1,1.9,0.9,3.4,2.1,4.6s2.8,1.7,4.7,1.7c2.7,0,4.5-1.1,5.6-3.3h5.3
				c-0.7,2.2-2,4-3.9,5.4s-4.2,2.1-7,2.1c-2.3,0-4.3-0.5-6.1-1.5c-1.8-1-3.2-2.5-4.2-4.3c-1-1.9-1.5-4-1.5-6.5s0.5-4.6,1.5-6.5
				c1-1.9,2.4-3.3,4.2-4.3s3.9-1.5,6.2-1.5c2.2,0,4.3,0.5,6,1.5c1.8,1,3.1,2.4,4.1,4.1c1,1.8,1.5,3.8,1.5,6.1
				C276.8,728.3,276.8,729.1,276.6,729.8z M271.6,725.8c0-1.8-0.7-3.3-2-4.4c-1.3-1.1-2.8-1.6-4.7-1.6c-1.7,0-3.2,0.5-4.4,1.6
				s-1.9,2.5-2.2,4.4H271.6z"/>
			<path class="st4" d="M302.9,720h-4.4v19.8h-5V720h-2.8v-4h2.8v-1.7c0-2.7,0.7-4.7,2.2-6c1.5-1.2,3.8-1.9,6.9-1.9v4.1
				c-1.5,0-2.5,0.3-3.2,0.8c-0.6,0.6-0.9,1.5-0.9,2.9v1.7h4.4L302.9,720L302.9,720z"/>
			<path class="st4" d="M311.5,738.7c-1.8-1-3.2-2.5-4.3-4.3c-1-1.9-1.6-4-1.6-6.5c0-2.4,0.5-4.6,1.6-6.5c1.1-1.9,2.5-3.3,4.4-4.3
				c1.9-1,3.9-1.5,6.2-1.5s4.3,0.5,6.2,1.5s3.3,2.5,4.4,4.3s1.6,4,1.6,6.5s-0.5,4.6-1.6,6.5c-1.1,1.9-2.6,3.3-4.5,4.3
				c-1.9,1-4,1.5-6.3,1.5C315.4,740.3,313.4,739.8,311.5,738.7z M321.2,735.1c1.1-0.6,2-1.5,2.7-2.7c0.7-1.2,1-2.7,1-4.4
				c0-1.7-0.3-3.2-1-4.4c-0.7-1.2-1.5-2.1-2.6-2.7c-1.1-0.6-2.3-0.9-3.5-0.9s-2.5,0.3-3.5,0.9s-1.9,1.5-2.6,2.7
				c-0.6,1.2-1,2.7-1,4.4c0,2.6,0.7,4.5,2,6s3,2.1,5,2.1C318.9,736,320.1,735.7,321.2,735.1z"/>
			<path class="st4" d="M342.7,716.7c1.2-0.7,2.6-1,4.3-1v5.1h-1.3c-1.9,0-3.4,0.5-4.4,1.5c-1,1-1.5,2.7-1.5,5.1v12.6h-4.9V716h4.9
				v3.5C340.6,718.3,341.5,717.3,342.7,716.7z"/>
			<path class="st4" d="M367.7,709.8v30.1h-4.9v-30.1H367.7z"/>
			<path class="st4" d="M391.3,716.8c1.5,0.8,2.6,1.9,3.5,3.5s1.3,3.4,1.3,5.5v14.1h-4.9v-13.3c0-2.1-0.5-3.8-1.6-4.9
				c-1.1-1.1-2.5-1.7-4.4-1.7s-3.3,0.6-4.4,1.7c-1.1,1.1-1.6,2.8-1.6,4.9v13.3h-4.9V716h4.9v2.7c0.8-1,1.8-1.8,3.1-2.3
				c1.3-0.5,2.6-0.8,4-0.8C388.1,715.6,389.8,716,391.3,716.8z"/>
			<path class="st4" d="M419.4,716.8c1.5,0.8,2.6,1.9,3.5,3.5s1.3,3.4,1.3,5.5v14.1h-4.9v-13.3c0-2.1-0.5-3.8-1.6-4.9
				c-1.1-1.1-2.5-1.7-4.4-1.7s-3.3,0.6-4.4,1.7c-1.1,1.1-1.6,2.8-1.6,4.9v13.3h-4.9V716h4.9v2.7c0.8-1,1.8-1.8,3.1-2.3
				c1.3-0.5,2.6-0.8,4-0.8C416.2,715.6,417.9,716,419.4,716.8z"/>
			<path class="st4" d="M434.7,738.7c-1.8-1-3.2-2.5-4.3-4.3c-1-1.9-1.6-4-1.6-6.5c0-2.4,0.5-4.6,1.6-6.5c1.1-1.9,2.5-3.3,4.4-4.3
				c1.9-1,3.9-1.5,6.2-1.5s4.3,0.5,6.2,1.5s3.3,2.5,4.4,4.3s1.6,4,1.6,6.5s-0.5,4.6-1.6,6.5c-1.1,1.9-2.6,3.3-4.5,4.3
				c-1.9,1-4,1.5-6.3,1.5C438.5,740.3,436.5,739.8,434.7,738.7z M444.3,735.1c1.1-0.6,2-1.5,2.7-2.7c0.7-1.2,1-2.7,1-4.4
				c0-1.7-0.3-3.2-1-4.4c-0.7-1.2-1.5-2.1-2.6-2.7c-1.1-0.6-2.3-0.9-3.5-0.9s-2.5,0.3-3.5,0.9s-1.9,1.5-2.6,2.7
				c-0.6,1.2-1,2.7-1,4.4c0,2.6,0.7,4.5,2,6s3,2.1,5,2.1C442,736,443.2,735.7,444.3,735.1z"/>
			<path class="st4" d="M467.3,735.5L474,716h5.2l-9.1,23.9h-5.9l-9-23.9h5.3L467.3,735.5z"/>
			<path class="st4" d="M482.8,721.5c1-1.8,2.4-3.3,4.1-4.3c1.7-1,3.6-1.5,5.7-1.5c1.9,0,3.5,0.4,4.9,1.1s2.5,1.7,3.4,2.8V716h5
				v23.9h-5v-3.5c-0.8,1.1-2,2.1-3.4,2.8s-3.1,1.1-4.9,1.1c-2,0-3.9-0.5-5.6-1.6s-3-2.5-4-4.4s-1.5-4-1.5-6.4
				C481.3,725.5,481.8,723.3,482.8,721.5z M499.8,723.6c-0.7-1.2-1.6-2.1-2.7-2.8c-1.1-0.6-2.3-1-3.5-1s-2.5,0.3-3.5,0.9
				c-1.1,0.6-2,1.5-2.7,2.7c-0.7,1.2-1,2.6-1,4.3s0.3,3.1,1,4.3s1.6,2.2,2.7,2.8s2.3,1,3.5,1c1.3,0,2.5-0.3,3.5-1
				c1.1-0.6,2-1.6,2.7-2.8c0.7-1.2,1-2.7,1-4.3C500.9,726.3,500.5,724.9,499.8,723.6z"/>
			<path class="st4" d="M518.1,720v13.2c0,0.9,0.2,1.5,0.6,1.9s1.1,0.6,2.1,0.6h3v4.1H520c-2.2,0-3.9-0.5-5.1-1.6s-1.8-2.7-1.8-5.1
				V720h-2.8v-4h2.8v-5.9h5v5.9h5.8v4L518.1,720L518.1,720z"/>
			<path class="st4" d="M528.7,712c-0.6-0.6-0.9-1.4-0.9-2.2s0.3-1.7,0.9-2.2c0.6-0.6,1.4-0.9,2.2-0.9c0.9,0,1.6,0.3,2.2,0.9
				c0.6,0.6,0.9,1.4,0.9,2.2s-0.3,1.7-0.9,2.2c-0.6,0.6-1.3,0.9-2.2,0.9C530,712.9,529.3,712.6,528.7,712z M533.4,716v23.9h-4.9V716
				H533.4z"/>
			<path class="st4" d="M544.1,738.7c-1.8-1-3.2-2.5-4.3-4.3c-1-1.9-1.6-4-1.6-6.5c0-2.4,0.5-4.6,1.6-6.5c1.1-1.9,2.5-3.3,4.4-4.3
				c1.8-1,3.9-1.5,6.2-1.5s4.3,0.5,6.2,1.5s3.3,2.5,4.4,4.3s1.6,4,1.6,6.5s-0.5,4.6-1.7,6.5c-1.1,1.9-2.6,3.3-4.5,4.3
				c-1.9,1-4,1.5-6.3,1.5C548,740.3,545.9,739.8,544.1,738.7z M553.8,735.1c1.1-0.6,2-1.5,2.7-2.7c0.7-1.2,1-2.7,1-4.4
				c0-1.7-0.3-3.2-1-4.4c-0.7-1.2-1.5-2.1-2.6-2.7c-1.1-0.6-2.3-0.9-3.5-0.9c-1.3,0-2.5,0.3-3.5,0.9s-1.9,1.5-2.6,2.7s-1,2.7-1,4.4
				c0,2.6,0.7,4.5,2,6s3,2.1,5,2.1C551.5,736,552.7,735.7,553.8,735.1z"/>
			<path class="st4" d="M584.6,716.8c1.5,0.8,2.7,1.9,3.5,3.5c0.8,1.5,1.3,3.4,1.3,5.5v14.1h-4.9v-13.3c0-2.1-0.5-3.8-1.6-4.9
				c-1.1-1.1-2.5-1.7-4.4-1.7c-1.8,0-3.3,0.6-4.4,1.7s-1.6,2.8-1.6,4.9v13.3h-4.9V716h4.9v2.7c0.8-1,1.8-1.8,3.1-2.3
				c1.3-0.5,2.6-0.8,4-0.8C581.4,715.6,583.1,716,584.6,716.8z"/>
			<path class="st4" d="M606.7,721.5c1-1.8,2.3-3.3,4.1-4.3c1.7-1,3.6-1.5,5.7-1.5c1.9,0,3.5,0.4,4.9,1.1s2.5,1.7,3.4,2.8V716h5
				v23.9h-5v-3.5c-0.8,1.1-2,2.1-3.4,2.8s-3.1,1.1-4.9,1.1c-2,0-3.9-0.5-5.6-1.6s-3-2.5-4-4.4s-1.5-4-1.5-6.4
				C605.2,725.5,605.7,723.3,606.7,721.5z M623.7,723.6c-0.7-1.2-1.6-2.1-2.7-2.8c-1.1-0.6-2.3-1-3.5-1s-2.5,0.3-3.5,0.9
				s-2,1.5-2.7,2.7c-0.7,1.2-1,2.6-1,4.3s0.3,3.1,1,4.3s1.6,2.2,2.7,2.8s2.3,1,3.5,1c1.3,0,2.5-0.3,3.5-1s2-1.6,2.7-2.8
				c0.7-1.2,1-2.7,1-4.3C624.7,726.3,624.4,724.9,623.7,723.6z"/>
			<path class="st4" d="M653.3,716.8c1.5,0.8,2.7,1.9,3.5,3.5c0.8,1.5,1.3,3.4,1.3,5.5v14.1h-4.9v-13.3c0-2.1-0.5-3.8-1.6-4.9
				c-1.1-1.1-2.5-1.7-4.4-1.7c-1.8,0-3.3,0.6-4.4,1.7s-1.6,2.8-1.6,4.9v13.3h-4.9V716h4.9v2.7c0.8-1,1.8-1.8,3.1-2.3
				c1.3-0.5,2.6-0.8,4-0.8C650.1,715.6,651.8,716,653.3,716.8z"/>
			<path class="st4" d="M664.1,721.5c1-1.8,2.3-3.3,4.1-4.3c1.7-1,3.6-1.5,5.7-1.5c1.6,0,3.1,0.3,4.6,1c1.5,0.7,2.7,1.6,3.6,2.7
				v-11.5h5v32h-5v-3.6c-0.8,1.2-1.9,2.1-3.4,2.9s-3.1,1.1-4.9,1.1c-2.1,0-4-0.5-5.7-1.6c-1.7-1-3.1-2.5-4.1-4.4s-1.5-4-1.5-6.4
				C662.7,725.5,663.2,723.3,664.1,721.5z M681.2,723.6c-0.7-1.2-1.6-2.1-2.7-2.8c-1.1-0.6-2.3-1-3.5-1s-2.5,0.3-3.5,0.9
				s-2,1.5-2.7,2.7c-0.7,1.2-1,2.6-1,4.3s0.3,3.1,1,4.3s1.6,2.2,2.7,2.8s2.3,1,3.5,1c1.3,0,2.5-0.3,3.5-1s2-1.6,2.7-2.8
				c0.7-1.2,1-2.7,1-4.3C682.2,726.3,681.8,724.9,681.2,723.6z"/>
			<path class="st4" d="M705.3,716.8c1.4-2.3,3.2-4.2,5.6-5.5s4.9-2,7.7-2c3.2,0,6,0.8,8.5,2.4s4.3,3.8,5.4,6.7h-5.9
				c-0.8-1.6-1.9-2.8-3.2-3.5c-1.4-0.8-3-1.2-4.8-1.2c-2,0-3.8,0.5-5.3,1.3c-1.6,0.9-2.8,2.2-3.7,3.8c-0.9,1.7-1.3,3.6-1.3,5.8
				c0,2.2,0.4,4.2,1.3,5.8c0.9,1.7,2.1,3,3.7,3.9s3.3,1.4,5.3,1.4c1.8,0,3.4-0.4,4.8-1.2c1.4-0.8,2.5-2,3.2-3.5h5.9
				c-1.1,2.9-2.9,5.1-5.4,6.7c-2.5,1.6-5.3,2.3-8.5,2.3c-2.8,0-5.4-0.7-7.8-2s-4.2-3.1-5.6-5.5c-1.4-2.3-2.1-5-2.1-7.9
				S704,719.2,705.3,716.8z"/>
			<path class="st4" d="M760,716v23.9H755v-2.8c-0.8,1-1.8,1.8-3,2.3c-1.2,0.6-2.6,0.8-4,0.8c-1.9,0-3.6-0.4-5-1.2s-2.7-1.9-3.5-3.5
				c-0.8-1.5-1.3-3.4-1.3-5.5v-14h4.9v13.3c0,2.1,0.5,3.8,1.6,4.9c1.1,1.1,2.5,1.7,4.4,1.7c1.8,0,3.3-0.6,4.4-1.7s1.6-2.8,1.6-4.9
				V716L760,716L760,716z"/>
			<path class="st4" d="M771.4,707.8v32h-4.9v-32H771.4z"/>
			<path class="st4" d="M783.7,720v13.2c0,0.9,0.2,1.5,0.6,1.9s1.1,0.6,2.1,0.6h3v4.1h-3.9c-2.2,0-3.9-0.5-5.1-1.6s-1.8-2.7-1.8-5.1
				V720h-2.8v-4h2.8v-5.9h5v5.9h5.8v4L783.7,720L783.7,720z"/>
			<path class="st4" d="M815.6,716v23.9h-4.9v-2.8c-0.8,1-1.8,1.8-3,2.3c-1.2,0.6-2.6,0.8-4,0.8c-1.9,0-3.6-0.4-5-1.2
				s-2.7-1.9-3.5-3.5c-0.8-1.5-1.3-3.4-1.3-5.5v-14h4.9v13.3c0,2.1,0.5,3.8,1.6,4.9c1.1,1.1,2.5,1.7,4.4,1.7c1.8,0,3.3-0.6,4.4-1.7
				s1.6-2.8,1.6-4.9V716L815.6,716L815.6,716z"/>
			<path class="st4" d="M829.9,716.7c1.2-0.7,2.6-1,4.3-1v5.1h-1.2c-1.9,0-3.4,0.5-4.4,1.5c-1,1-1.5,2.7-1.5,5.1v12.6h-4.9V716h4.9
				v3.5C827.8,718.3,828.7,717.3,829.9,716.7z"/>
			<path class="st4" d="M860.4,729.8h-18.2c0.1,1.9,0.8,3.4,2.1,4.6s2.8,1.7,4.7,1.7c2.7,0,4.5-1.1,5.6-3.3h5.3
				c-0.7,2.2-2,4-3.9,5.4c-1.9,1.4-4.2,2.1-7,2.1c-2.3,0-4.3-0.5-6.1-1.5c-1.8-1-3.2-2.5-4.2-4.3c-1-1.9-1.5-4-1.5-6.5
				s0.5-4.6,1.5-6.5c1-1.9,2.4-3.3,4.2-4.3s3.9-1.5,6.2-1.5c2.2,0,4.3,0.5,6,1.5s3.1,2.4,4.1,4.1c1,1.8,1.5,3.8,1.5,6.1
				C860.6,728.3,860.5,729.1,860.4,729.8z M855.4,725.8c0-1.8-0.7-3.3-2-4.4c-1.3-1.1-2.8-1.6-4.7-1.6c-1.7,0-3.2,0.5-4.4,1.6
				s-1.9,2.5-2.2,4.4H855.4z"/>
		</g>
		<g>
			<rect id="I" x="125.4" y="446.6" class="st5" width="20" height="227.3"/>
			<path class="st6" d="M402.3,626.1c0-30.7-24.9-55.6-55.6-55.6c-13.6,0-26,4.9-35.6,12.9v-10.2h-20v100.1h20v-47.7
				c0.4-19.5,16.2-35.1,35.6-35.1c19.6,0,35.6,16,35.6,35.7v47.3h20L402.3,626.1L402.3,626.1z"/>
			<path class="st6" d="M274.1,626c0-30.7-24.9-55.6-55.6-55.6c-13.6,0-26,4.9-35.6,12.9v-10.2h-20v100.1h20v-47.7
				c0.4-19.5,16.2-35.1,35.6-35.1c19.6,0,35.6,16,35.7,35.7v47.3h20L274.1,626L274.1,626z"/>
			<path id="o" class="st7" d="M640.1,568.7c-30.8,0-55.7,24.7-55.7,55.2c0,30.5,24.9,55.2,55.7,55.2s55.7-24.7,55.7-55.2
				C695.8,593.4,670.9,568.7,640.1,568.7z M640.5,659.2c-19.7,0.2-35.8-15.4-36-34.8s15.6-35.3,35.2-35.5
				c19.7-0.2,35.8,15.4,36,34.8S660.2,659,640.5,659.2z"/>
			<g>
				<path class="st6" d="M610.4,446.1v20c19.7,0.1,35.7,16,35.7,35.6s-16,35.6-35.7,35.7v20c30.7,0,55.7-24.9,55.7-55.7
					S641.1,446.1,610.4,446.1z"/>
				<rect id="l_1_" x="547.9" y="446.2" class="st5" width="20" height="227.7"/>
				<rect id="l_2_" x="547.9" y="446.2" class="st5" width="62.9" height="20"/>
				<rect id="l_3_" x="547.9" y="537.5" class="st5" width="62.8" height="20"/>
			</g>
			<path id="o_1_" class="st7" d="M475.1,568.7c-30.8,0-55.7,24.7-55.7,55.2c0,30.5,24.9,55.2,55.7,55.2s55.7-24.7,55.7-55.2
				C530.8,593.3,505.9,568.7,475.1,568.7z M475.6,659.1c-19.7,0.2-35.8-15.4-36-34.8s15.6-35.3,35.2-35.5
				c19.7-0.2,35.8,15.4,36,34.8S495.2,658.9,475.6,659.1z"/>
			<rect id="l" x="714.3" y="446.5" class="st5" width="20" height="227.5"/>
			<g id="i_1_">
				<rect id="i" x="761.2" y="574.4" class="st5" width="20" height="98.3"/>
				<circle class="st5" cx="771.2" cy="551.2" r="11.5"/>
			</g>
			<g>
				<path class="st7" d="M819.8,671.9c-5.5-2.4-9.9-5.9-13.1-10.3c-3.2-4.5-4.8-9.7-4.8-15.6h18.1c0.4,4.5,2.2,8.1,5.3,11
					c3.1,2.9,7.5,4.3,13.2,4.3c5.8,0,10.4-1.4,13.7-4.2c3.3-2.8,4.9-6.5,4.9-10.9c0-3.5-1-6.3-3-8.5c-2-2.2-4.6-3.9-7.6-5
					s-7.2-2.5-12.6-3.9c-6.7-1.8-12.2-3.6-16.4-5.4c-4.2-1.8-7.8-4.7-10.8-8.5c-3-3.9-4.5-9-4.5-15.5c0-5.9,1.5-11.2,4.5-15.6
					c3-4.5,7.1-7.9,12.5-10.2c5.3-2.4,11.5-3.6,18.6-3.6c10,0,18.2,2.5,24.6,7.5s9.9,11.9,10.6,20.6h-18.7c-0.3-3.8-2.1-7-5.3-9.7
					c-3.3-2.7-7.6-4-12.9-4c-4.8,0-8.8,1.2-11.9,3.7s-4.6,6-4.6,10.7c0,3.2,1,5.8,2.9,7.8c1.9,2,4.4,3.6,7.4,4.8
					c3,1.2,7,2.5,12.2,3.9c6.8,1.9,12.4,3.8,16.7,5.7s8,4.8,11,8.7c3,3.9,4.5,9.1,4.5,15.7c0,5.2-1.4,10.2-4.2,14.9
					c-2.8,4.7-6.9,8.4-12.3,11.2c-5.4,2.8-11.8,4.2-19.1,4.2C831.6,675.6,825.4,674.4,819.8,671.9z"/>
			</g>
		</g>
	</g>
</g>
</svg>
